<?xml version="1.0" encoding="UTF-8" standalone="no"?>
<!DOCTYPE svg PUBLIC "-//W3C//DTD SVG 1.1//EN" "http://www.w3.org/Graphics/SVG/1.1/DTD/svg11.dtd">
<svg version="1.1" xmlns="http://www.w3.org/2000/svg" xmlns:xlink="http://www.w3.org/1999/xlink" preserveAspectRatio="xMidYMid meet" viewBox="0 0 640 640" width="640" height="640"><defs><path d="" id="e19u6nLXze"></path><path d="M297.47 278.59C297.47 361.92 230.82 429.57 148.73 429.57C66.65 429.57 0 361.92 0 278.59C0 195.26 66.65 127.6 148.73 127.6C230.82 127.6 297.47 195.26 297.47 278.59Z" id="a4y12JBiA"></path><path d="M640 278.59C640 361.92 573.36 429.57 491.27 429.57C409.18 429.57 342.54 361.92 342.54 278.59C342.54 195.26 409.18 127.6 491.27 127.6C573.36 127.6 640 195.26 640 278.59Z" id="bjhNvEnSt"></path><path d="M123.37 127.6L515.52 127.6L515.52 429.57L123.37 429.57L123.37 127.6Z" id="f2KgIjAJD"></path><path d="M181.95 127.6L462.19 127.6L462.19 344.76L181.95 344.76L181.95 127.6Z" id="bTgce6gNE"></path><path d="M336.91 138.72L319.37 14.78L297.47 138.72L336.91 138.72Z" id="da9txQ7bK"></path><path d="M195.71 127.6L448.43 127.6L448.43 332.69L195.71 332.69L195.71 127.6Z" id="ar6BudISU"></path><path d="M342.54 23.24C342.54 36.06 332.12 46.48 319.3 46.48C306.47 46.48 296.06 36.06 296.06 23.24C296.06 10.41 306.47 0 319.3 0C332.12 0 342.54 10.41 342.54 23.24Z" id="cpB4vLvtw"></path><path d="M339.55 251.03L334.59 268.54L305.84 268.54L300.88 251.03L339.55 251.03Z" id="c1zAKkeyoH"></path><path d="M320.22 205.7L327.54 232.38L312.91 232.38L320.22 205.7Z" id="b1mlfbZSRO"></path><path d="" id="b1VtS2Ohh"></path><path d="M391.87 188.1C391.87 192.02 386.15 195.2 379.1 195.2C372.05 195.2 366.33 192.02 366.33 188.1C366.33 184.19 372.05 181.01 379.1 181.01C386.15 181.01 391.87 184.19 391.87 188.1Z" id="bG2uXTQu7"></path><path d="M273.26 188.1C273.26 192.02 267.53 195.2 260.48 195.2C253.44 195.2 247.71 192.02 247.71 188.1C247.71 184.19 253.44 181.01 260.48 181.01C267.53 181.01 273.26 184.19 273.26 188.1Z" id="j3TVJYryBl"></path><path d="M123.37 426.89L117.9 425.83L107.72 423.86L87.87 416.64L75.31 409.74L76.65 144.89L107.72 131.75L123.37 127.6L123.37 426.89Z" id="awf4euvwm"></path><path d="" id="lr8TJ0OoX"></path><path d="M515.52 426.99L520.99 425.93L531.17 423.96L551.02 416.75L563.58 409.84L562.23 144.99L531.17 131.85L515.52 127.71L515.52 426.99Z" id="b7GRYQy0f"></path><path d="M75.31 409.09L53.45 393.97L38.92 379.48L38.92 177.59L53.45 163.45L65.55 152.71L77.59 145.4L75.31 409.09Z" id="aZ27G9qSo"></path><path d="M563.38 410.43L585.24 395.31L599.77 380.82L599.77 175.77L588 163.21L575.12 154.05L561.1 144.8L563.38 410.43Z" id="b3Om0syIaV"></path></defs><g><g><g><g><use xlink:href="#e19u6nLXze" opacity="1" fill-opacity="0" stroke="#0b66ae" stroke-width="1" stroke-opacity="1"></use></g></g><g><use xlink:href="#a4y12JBiA" opacity="1" fill="#3c9445" fill-opacity="1"></use></g><g><use xlink:href="#bjhNvEnSt" opacity="1" fill="#3c9445" fill-opacity="1"></use></g><g><use xlink:href="#f2KgIjAJD" opacity="1" fill="#81bb3a" fill-opacity="1"></use></g><g><use xlink:href="#bTgce6gNE" opacity="1" fill="#e7c947" fill-opacity="1"></use></g><g><use xlink:href="#da9txQ7bK" opacity="1" fill="#e7c947" fill-opacity="1"></use><g><use xlink:href="#da9txQ7bK" opacity="1" fill-opacity="0" stroke="#0b66ae" stroke-width="0" stroke-opacity="1"></use></g></g><g><use xlink:href="#ar6BudISU" opacity="1" fill="#f0ccb5" fill-opacity="1"></use></g><g><use xlink:href="#cpB4vLvtw" opacity="1" fill="#c72935" fill-opacity="1"></use></g><g><use xlink:href="#c1zAKkeyoH" opacity="1" fill="#a6252a" fill-opacity="1"></use><g><use xlink:href="#c1zAKkeyoH" opacity="1" fill-opacity="0" stroke="#0b66ae" stroke-width="0" stroke-opacity="1"></use></g></g><g><use xlink:href="#b1mlfbZSRO" opacity="1" fill="#e15a27" fill-opacity="1"></use><g><use xlink:href="#b1mlfbZSRO" opacity="1" fill-opacity="0" stroke="#0b66ae" stroke-width="0" stroke-opacity="1"></use></g></g><g><g><use xlink:href="#b1VtS2Ohh" opacity="1" fill-opacity="0" stroke="#0b66ae" stroke-width="0" stroke-opacity="1"></use></g></g><g><use xlink:href="#bG2uXTQu7" opacity="1" fill="#716e7f" fill-opacity="1"></use></g><g><use xlink:href="#j3TVJYryBl" opacity="1" fill="#716e7f" fill-opacity="1"></use></g><g><use xlink:href="#awf4euvwm" opacity="1" fill="#acd24b" fill-opacity="1"></use><g><use xlink:href="#awf4euvwm" opacity="1" fill-opacity="0" stroke="#0b66ae" stroke-width="0" stroke-opacity="1"></use></g></g><g><g><use xlink:href="#lr8TJ0OoX" opacity="1" fill-opacity="0" stroke="#0b66ae" stroke-width="0" stroke-opacity="1"></use></g></g><g><use xlink:href="#b7GRYQy0f" opacity="1" fill="#acd24b" fill-opacity="1"></use><g><use xlink:href="#b7GRYQy0f" opacity="1" fill-opacity="0" stroke="#0b66ae" stroke-width="0" stroke-opacity="1"></use></g></g><g><use xlink:href="#aZ27G9qSo" opacity="1" fill="#4c9f3a" fill-opacity="1"></use><g><use xlink:href="#aZ27G9qSo" opacity="1" fill-opacity="0" stroke="#000000" stroke-width="0" stroke-opacity="1"></use></g></g><g><use xlink:href="#b3Om0syIaV" opacity="1" fill="#4c9f3a" fill-opacity="1"></use><g><use xlink:href="#b3Om0syIaV" opacity="1" fill-opacity="0" stroke="#000000" stroke-width="0" stroke-opacity="1"></use></g></g></g></g></svg>