<?xml version="1.0" encoding="utf-8"?>
<svg viewBox="0 0 173 247" xmlns="http://www.w3.org/2000/svg">
  <path style="stroke-width: 0px; stroke: rgb(211, 91, 152); fill: rgb(218, 99, 160);" d="M 17.093 36.203 L 152.511 29.066 C 177.174 46.527 169.34 99.862 154.389 108.543 L 23.288 110.582 C -7.448 88.326 10.739 31.602 17.093 36.203 Z"/>
  <path style="stroke: rgb(0, 0, 0); stroke-width: 0px; fill: rgb(203, 189, 66);" d="M 75.498 38.572 L 80.408 8.002 L 91.423 40.182 L 76.207 38.913"/>
  <path style="stroke: rgb(0, 0, 0); stroke-width: 0px; fill: rgb(59, 24, 115);" d="M 95.418 187.55 L 97.306 240.364 L 108.361 240.107 L 104.05 183.667"/>
  <path style="stroke: rgb(0, 0, 0); stroke-width: 0px; fill: rgb(131, 200, 237);" d="M 56.609 107.36 L 47.407 186.32 L 131.1 183.737 L 120.151 107.643 L 57.128 106.563"/>
  <path style="stroke-width: 6px; stroke: rgb(203, 189, 66); fill: rgb(126, 133, 142);" d="M 63.413 105.183 L 77.283 134.679 L 95.9 105.343 L 65.238 106.187"/>
  <path style="fill: rgb(140, 45, 185); stroke: rgb(140, 45, 185);" d="M 23.389 36.11 L 135.975 30.285 C 138.241 37.124 126.854 48.171 122.109 46.822 C 121.911 46.649 116.985 52.243 118.057 53.183 C 145.231 58.505 132.391 90.375 120.177 84.78 C 119.099 84.706 119.569 93.681 121.808 93.834 C 136.259 90.87 138.169 105.824 138.627 108.165 L 27.884 109.867 C 19.814 104.919 23.802 93.741 30.935 93.574 C 35.232 92.586 32.103 87.985 30.596 88.332 C 7.514 83.511 10.104 66.011 22.677 59.043 C 27.375 56.439 33.297 57.76 30.583 57.558 L 33.274 51.908 C 33.335 50.423 33.784 46.154 31.78 46.733 C 20.662 49.941 21.642 37.609 23.389 36.11 Z"/>
  <path style="stroke: rgb(203, 189, 66); fill: rgb(126, 133, 142); stroke-width: 5px;" d="M 44.736 36.657 L 111.367 32.653 C 104.454 43.324 103.734 90.695 110.536 103.447 L 45.697 104.89 C 34.716 101.21 34.375 49.107 44.736 36.657 Z" transform="matrix(0.999945, 0.010527, -0.010527, 0.999945, 0.728074, -0.778202)"/>
  <path style="stroke: rgb(0, 0, 0); fill: rgb(255, 0, 0); stroke-width: 0px;" d="M 204.238 92.823"/>
  <ellipse style="fill: rgb(202, 171, 199);" cx="160.579" cy="70.568" rx="8.663" ry="25.081"/>
  <path style="fill: rgb(140, 45, 185); stroke: rgb(140, 45, 185);"/>
  <circle style="fill: rgb(197, 121, 170);" cx="223.889" cy="348.997" r="11.083" transform="matrix(0.716312, 0, 0, 0.683533, -67.527779, -157.170761)"/>
  <circle style="fill: rgb(197, 121, 170);" cx="223.889" cy="348.997" r="11.083" transform="matrix(0.683832, 0, 0, 0.652539, -103.19841, -144.313965)"/>
  <path style="fill: rgb(216, 216, 216); stroke: rgb(0, 0, 0);" d="M 84.366 42.426 L 84.366 42.426 L 84.366 42.426 L 84.366 42.426"/>
  <path style="fill: rgb(216, 216, 216); stroke: rgb(0, 0, 0);" d="M 80.306 40.052"/>
  <ellipse style="fill: rgb(9, 5, 20);" cx="218.255" cy="326.159" rx="4.532" ry="2.585" transform="matrix(0.866026, -0.499999, 0.499999, 0.866026, -265.12262, -119.10141)"/>
  <ellipse style="fill: rgb(216, 216, 216);" cx="87.821" cy="302.505" rx="0.777" ry="0.983"/>
  <ellipse style="fill: rgb(9, 5, 20);" cx="-218.255" cy="-326.159" rx="4.532" ry="2.585" transform="matrix(0.866026, 0.499999, 0.499999, -0.866026, 410.354797, -118.013046)"/>
  <path style="fill: rgb(216, 216, 216); stroke: rgb(0, 0, 0); stroke-width: 0px;" d="M 69.4 314.754 L 69.4 314.754"/>
  <g transform="matrix(1, 0, 0, 1, -130.954391, -270.804718)" style="">
    <path style="stroke: rgb(0, 0, 0); stroke-width: 0px; fill: rgb(119, 72, 36);" d="M 198.529 339.239 L 198.502 343.972 L 203.652 342.363 L 198.74 339.55"/>
    <path style="stroke: rgb(0, 0, 0); stroke-width: 0px; fill: rgb(196, 149, 87);" d="M 198.556 339.444 L 203.561 342.215 L 201.499 333.229 L 198.457 339.608"/>
  </g>
  <path style="stroke: rgb(0, 0, 0); stroke-width: 0px; fill: rgb(80, 32, 21);" d="M 65.843 77.567 L 73.165 80.489 L 75.206 86.445 L 68.066 87.126 L 65.599 77.502"/>
  <path style="stroke: rgb(0, 0, 0); stroke-width: 0px; fill: rgb(52, 57, 62);" d="M 46.245 38.673 L 107.805 35.686 L 107.125 36.779 L 71.994 45.181 L 46 39.368 L 46.406 38.677"/>
  <ellipse style="fill: rgb(216, 216, 216);" cx="23.672" cy="74.331" rx="3.811" ry="4.816"/>
  <ellipse style="fill: rgb(216, 216, 216);" cx="34.334" cy="106.138" rx="3.716" ry="3.786"/>
  <ellipse style="fill: rgb(216, 216, 216);" cx="127.631" cy="104.263" rx="3.622" ry="3.622"/>
  <ellipse style="fill: rgb(216, 216, 216);" cx="123.563" cy="70.075" rx="3.869" ry="4.908"/>
  <ellipse style="fill: rgb(216, 216, 216);" cx="126.23" cy="35.645" rx="3.329" ry="3.329"/>
  <ellipse style="stroke-width: 0px; fill: rgb(203, 189, 66);" cx="27.885" cy="-207.937" rx="2.977" ry="2.977"/>
  <path style="stroke: rgb(0, 0, 0); stroke-width: 0px; fill: rgb(203, 189, 66);" d="M 82.586 28.537"/>
  <circle style="fill: rgb(199, 43, 46);" cx="80.3" cy="11.535" r="7.908"/>
  <path style="stroke: rgb(0, 0, 0); stroke-width: 0px; fill: rgb(131, 200, 237);" d="M 56.772 111.015 L 22.073 173.03 L 30.145 177.634 L 56.319 134.392"/>
  <path style="stroke: rgb(0, 0, 0); stroke-width: 0px; fill: rgb(131, 200, 237);" d="M 121.963 128.09 L 145.137 178.205 L 135.209 179.705 L 112.21 126.585"/>
  <path style="fill: rgb(216, 216, 216); stroke: rgb(0, 0, 0);" d="M 124.337 140.525"/>
  <path style="stroke: rgb(0, 0, 0); stroke-width: 0px; fill: rgb(59, 24, 115);" d="M 72.029 189.896 L 69.256 241.438 L 80.792 241.397 L 80.044 187.835"/>
  <path style="stroke: rgb(0, 0, 0); stroke-width: 0px; fill: rgb(207, 184, 91);" d="M 47.883 186.045 L 47.004 191.083 L 131.564 188.254 L 130.764 183.102 L 48.31 186.053"/>
  <path style="fill: rgb(216, 216, 216); stroke: rgb(0, 0, 0);" d="M 113.582 205.457 L 113.582 205.457"/>
</svg>